# xmcd
#
# Track frame offsets:
# 150
# 14339
# 27094
# 39357
# 51961
# 66530
# 82333
# 91260
# 103168
# 119569
# 131072
# 142749
# 158734
# 176344
#
# Disc length: 2540 seconds
#
#
# Revision: 0
# Processed by: cddbd v1.5.2PL0 Copyright (c) Steve Scherf et al.
# Submitted via: FreeRIP 2.96 
#
DISCID=bd09ea0e
DTITLE=The Hoppers - Hymns: A Classic Collection
DYEAR=2011
DGENRE=Southern Gospel
TTITLE0=Down By The Riverside(Ain't Gonna Study War No More
TTITLE1=Come Thou Fount Of Every Blessing
TTITLE2=I Sing The Mighty Power Of God
TTITLE3=Until Then
TTITLE4=The Love Of God
TTITLE5=Oh Come Angel Band
TTITLE6=The Solid Rock
TTITLE7=Land Where Living Waters Flow
TTITLE8=Going Home
TTITLE9=Rock Of Ages
TTITLE10=Zion's Hill
TTITLE11=All Hail The Power Of Jesus's Name
TTITLE12=It Is Well With My Soul
TTITLE13=Just As I Am/Coming Home
EXTD=Spring Hill Records
EXTT0=
EXTT1=
EXTT2=
EXTT3=
EXTT4=
EXTT5=
EXTT6=
EXTT7=
EXTT8=
EXTT9=
EXTT10=
EXTT11=
EXTT12=
EXTT13=
PLAYORDER=
